# Blender v2.64 (sub 0) OBJ File: 'arrow.blend'
# www.blender.org
mtllib arrow.mtl
o Cube
v 0.100000 0.600000 -1.000000
v 1.000000 0.600000 1.000000
v -1.000000 0.600000 1.000000
v -0.100000 0.600000 -1.000000
v 0.100000 1.000000 -0.999999
v 0.999999 1.000000 1.000001
v -1.000000 1.000000 1.000000
v -0.100000 1.000000 -1.000000
v -0.000001 1.000000 0.400000
v 0.000000 0.600000 0.400000
vt 2.217870 5.914361
vt -1.325860 2.667679
vt 2.142930 5.096734
vt -0.285223 5.366628
vt -1.325859 8.065576
vt 2.312099 -0.170313
vt 2.318835 -1.407926
vt -0.642481 -3.139635
vt -0.534927 -0.920674
vt -0.608953 1.261175
vt 2.516896 0.920316
vt -1.325857 -0.920674
vt -1.312920 -4.211175
vt 2.598709 -2.918472
vt 3.902724 -0.149352
vt 3.909460 -1.386964
vt -1.265757 -0.895499
vn 0.000000 -1.000000 0.000000
vn -0.000000 1.000000 0.000000
vn 0.911922 0.000001 -0.410364
vn -0.514496 -0.000002 0.857493
vn -0.911921 -0.000000 -0.410365
vn 0.000002 0.000001 -1.000000
vn 0.514496 0.000000 0.857493
usemtl Material
s off
f 1/1/1 3/2/1 4/3/1
f 1/1/1 10/4/1 3/2/1
f 1/1/1 2/5/1 10/4/1
f 5/6/2 8/7/2 7/8/2
f 5/6/2 7/8/2 9/9/2
f 5/6/2 9/9/2 6/10/2
f 1/11/3 5/6/3 6/10/3
f 1/11/3 6/10/3 2/2/3
f 10/12/4 2/2/4 6/10/4
f 10/12/4 6/10/4 9/9/4
f 3/13/5 7/8/5 8/7/5
f 3/13/5 8/7/5 4/14/5
f 5/6/6 1/15/6 4/16/6
f 5/6/6 4/16/6 8/7/6
f 10/17/7 9/9/7 7/8/7
f 10/17/7 7/8/7 3/13/7
