# Blender v2.64 (sub 0) OBJ File: 'cash.blend'
# www.blender.org
mtllib cash.mtl
o Plane
v 1.038125 -0.002331 0.488891
v -1.023604 -0.045766 0.493187
v 1.021916 -0.026365 -0.500000
v -1.002370 -0.038485 -0.504878
v 1.048525 0.481443 0.488891
v -0.993174 0.475394 0.492398
v 1.000000 0.483385 -0.500000
v -1.000000 0.481406 -0.500000
v 0.252877 0.000000 0.488891
v -0.271306 0.000000 0.488891
v 0.252877 0.000000 -0.500000
v -0.271306 0.000000 -0.500000
v 0.252877 0.464553 0.488891
v -0.271306 0.464553 0.488891
v 0.252877 0.464553 -0.500000
v -0.271306 0.464553 -0.500000
v 0.304424 -0.027413 0.524681
v -0.322852 -0.027413 0.524681
v 0.304424 -0.027413 -0.538835
v -0.322852 -0.027413 -0.538835
v 0.304424 0.497505 0.524681
v -0.322852 0.497505 0.524681
v 0.304424 0.497505 -0.538835
v -0.322852 0.497505 -0.538835
v 1.051114 0.339635 -0.500000
v 1.078741 0.339635 0.488891
v -1.000000 0.339635 0.488891
v -1.001449 0.316810 -0.509320
v 0.252877 0.339635 0.488891
v -0.271306 0.339635 0.488891
v 0.252877 0.339635 -0.500000
v -0.271306 0.339635 -0.500000
v 0.304424 0.356355 0.524681
v -0.322852 0.356355 0.524681
v 0.304424 0.356355 -0.538835
v -0.322852 0.356355 -0.538835
v -0.635653 0.163025 -0.500000
v -0.635653 0.163025 0.488891
v -0.635653 0.339635 -0.500000
v -0.635653 0.339635 0.488891
v -0.635653 0.464553 -0.500000
v -0.635653 0.464553 0.488891
v -0.627694 -0.004535 -0.504577
v -0.635653 0.000000 0.488891
v 0.626439 0.316955 0.488891
v 0.626439 0.324668 -0.500000
v 0.626439 0.163025 0.488891
v 0.626439 0.163025 -0.500000
v -0.322852 0.156796 -0.538835
v 0.304424 0.156796 -0.538835
v -0.271306 0.163025 -0.500000
v 0.252877 0.163025 -0.500000
v -0.271306 0.163025 0.488891
v 0.252877 0.163025 0.488891
v -1.000000 0.163025 0.488891
v 1.064339 0.163025 0.488891
v -1.000000 0.163025 -0.500000
v 1.043840 0.163025 -0.500000
v -0.322852 0.156796 0.524681
v 0.304424 0.156796 0.524681
v 0.626439 0.007560 0.488891
v 0.626439 0.000000 -0.500000
v 0.626439 0.449433 0.488891
v 0.626439 0.468232 -0.500000
v 1.051114 0.301158 -0.500000
v 1.078741 0.301158 0.488891
vt 0.427155 0.458201
vt 0.143784 0.461906
vt 0.144821 0.350155
vt 0.425688 0.353644
vt 0.428214 0.104742
vt 0.427391 0.207362
vt 0.148188 0.203138
vt 0.149987 0.102510
vt 0.430304 0.000000
vt 0.709258 0.010251
vt 0.708134 0.053286
vt 0.429039 0.040892
vt 0.096977 0.465522
vt 0.087621 0.362534
vt 0.811550 0.449853
vt 0.708297 0.456280
vt 0.708772 0.409770
vt 0.811567 0.414603
vt 0.429039 0.253720
vt 0.148378 0.241396
vt 0.727310 0.680588
vt 0.448268 0.680635
vt 0.448267 0.575206
vt 0.727301 0.575181
vt 0.110876 0.960644
vt 0.161739 0.977575
vt 0.163775 1.000000
vt 0.106302 0.980870
vt 0.708641 0.158779
vt 0.709258 0.264189
vt 0.430229 0.265824
vt 0.429561 0.160333
vt 0.623088 0.574182
vt 0.442128 0.575181
vt 0.429039 0.548635
vt 0.631819 0.548635
vt 0.553704 0.843451
vt 0.448296 0.843415
vt 0.448312 0.797414
vt 0.553719 0.799584
vt 0.316952 0.929330
vt 0.338267 0.946857
vt 0.815771 0.307939
vt 0.710504 0.301061
vt 0.711392 0.265824
vt 0.816792 0.267442
vt 0.763807 0.683468
vt 0.763807 0.723296
vt 0.745597 0.713998
vt 0.745597 0.678750
vt 0.448206 0.752333
vt 0.148115 0.752230
vt 0.148176 0.575232
vt 0.448267 0.575336
vt 0.300091 0.752333
vt 0.300091 0.929330
vt 0.000000 0.929330
vt 0.000000 0.752333
vt 0.096137 0.752212
vt 0.096199 0.575214
vt 0.886256 0.039828
vt 0.709258 0.039828
vt 0.709258 0.000000
vt 0.886256 0.000000
vt 0.852480 0.796833
vt 0.999184 0.872308
vt 0.983338 0.887526
vt 0.852500 0.821209
vt 0.745596 0.678750
vt 0.745596 0.713998
vt 0.727386 0.723296
vt 0.727386 0.683468
vt 0.635553 0.547330
vt 0.429039 0.547330
vt 0.434296 0.522272
vt 0.619038 0.521313
vt 0.792414 0.823130
vt 0.799341 0.844482
vt 0.681332 0.941861
vt 0.960425 0.941323
vt 0.960458 0.980354
vt 0.681316 0.981049
vt 0.011536 0.472294
vt 0.000000 0.372063
vt 0.038005 0.366906
vt 0.046801 0.469510
vt 0.811544 0.499694
vt 0.708730 0.499747
vt 0.425508 0.296926
vt 0.147333 0.291076
vt 0.016798 0.929330
vt 0.055773 0.942303
vt 0.044039 0.960146
vt 0.000000 0.945488
vt 0.553676 0.924267
vt 0.448267 0.928497
vt 0.448279 0.893249
vt 0.553689 0.886886
vt 0.814622 0.353535
vt 0.709248 0.350879
vt 0.763807 0.627159
vt 0.745597 0.628917
vt 0.000000 0.752178
vt 0.000061 0.575181
vt 0.039889 0.575195
vt 0.039828 0.752192
vt 0.886256 0.096137
vt 0.709258 0.096137
vt 0.727386 0.627159
vt 0.681316 0.871768
vt 0.727342 0.851618
vt 0.741752 0.869694
vt 0.701019 0.887526
vt 0.745596 0.582916
vt 0.727386 0.575181
vt 0.886256 0.148115
vt 0.709258 0.148115
vt 0.104149 0.569061
vt 0.150206 0.565982
vt 0.813462 0.399521
vt 0.708089 0.396865
vt 0.763807 0.575181
vt 0.745597 0.582916
vt 0.428495 0.557283
vt 0.669885 0.796833
vt 0.677266 0.843494
vt 0.681316 0.882473
vt 0.681394 0.894620
vt 0.960458 0.887526
vt 0.914367 0.545693
vt 0.813802 0.546993
vt 0.914357 0.499694
vt 0.708089 0.556622
vt 0.019010 0.575181
vt 0.054285 0.572619
vt 0.935668 0.306736
vt 0.922272 0.265824
vt 0.914360 0.449867
vt 0.914367 0.414625
vt 0.672770 0.933340
vt 0.681309 0.893330
vt 0.727386 0.792427
vt 0.448267 0.796833
vt 0.429037 0.002232
vt 0.150809 0.000000
vt 0.924831 0.409770
vt 0.932362 0.356503
vt 0.935396 0.317590
vt 0.708089 0.393613
vt 0.708085 0.513517
vt 0.429051 0.521313
vt 0.429046 0.393527
vt 0.429039 0.265824
vt 0.708074 0.273600
vn 0.103963 -0.994581 0.000153
vn 0.038352 0.999260 0.002900
vn 0.961105 0.273730 -0.036737
vn 0.005027 0.011235 0.999924
vn 0.012494 0.032110 -0.999406
vn -0.999618 0.027372 0.003924
vn 0.010118 -0.999941 0.003822
vn -0.570334 0.000000 -0.821413
vn 0.015310 0.999838 0.009504
vn -0.538622 -0.842548 0.000000
vn 0.000000 -0.000000 1.000000
vn -0.469540 0.882911 0.000000
vn 0.000000 -0.000000 -1.000000
vn 0.601739 0.000000 0.798693
vn 0.000000 -1.000000 0.000000
vn 0.000000 1.000000 0.000000
vn 0.469540 0.882911 0.000000
vn -0.601739 0.000000 0.798693
vn 0.538622 -0.842548 0.000000
vn 0.570334 0.000000 -0.821413
vn 0.996643 -0.078195 -0.024251
vn 0.004654 -0.013574 0.999897
vn 0.013638 -0.028135 -0.999511
vn -0.999990 -0.004362 0.000779
vn -0.997947 0.063190 -0.010434
vn 0.006277 -0.999978 0.002313
vn 0.990779 -0.134446 -0.016755
vn 0.006261 0.013994 -0.999882
vn -0.000768 0.025599 -0.999672
vn -0.044866 -0.998860 0.016324
vn -0.059167 0.998177 0.011920
vn 0.042888 -0.999070 -0.004495
vn 0.044775 0.998992 0.003271
usemtl 
s off
f 43/1/1 44/2/1 2/3/1
f 43/1/1 2/3/1 4/4/1
f 41/5/2 8/6/2 6/7/2
f 41/5/2 6/7/2 42/8/2
f 26/9/3 25/10/3 7/11/3
f 26/9/3 7/11/3 5/12/3
f 38/13/4 55/14/4 2/3/4
f 38/13/4 2/3/4 44/2/4
f 39/15/5 28/16/5 8/17/5
f 39/15/5 8/17/5 41/18/5
f 28/19/6 27/20/6 6/7/6
f 28/19/6 6/7/6 8/6/6
f 62/21/7 61/22/7 9/23/7
f 62/21/7 9/23/7 11/24/7
f 53/25/8 10/26/8 18/27/8
f 53/25/8 18/27/8 59/28/8
f 64/29/9 15/30/9 13/31/9
f 64/29/9 13/31/9 63/32/9
f 16/33/10 14/34/10 22/35/10
f 16/33/10 22/35/10 24/36/10
f 47/37/11 54/38/11 9/39/11
f 47/37/11 9/39/11 61/40/11
f 10/26/12 12/41/12 20/42/12
f 10/26/12 20/42/12 18/27/12
f 46/43/13 31/44/13 15/45/13
f 46/43/13 15/45/13 64/46/13
f 35/47/14 23/48/14 15/49/14
f 35/47/14 15/49/14 31/50/14
f 19/51/15 17/52/15 18/53/15
f 19/51/15 18/53/15 20/54/15
f 23/55/16 24/56/16 22/57/16
f 23/55/16 22/57/16 21/58/16
f 60/59/11 59/60/11 18/53/11
f 60/59/11 18/53/11 17/52/11
f 35/61/13 36/62/13 24/63/13
f 35/61/13 24/63/13 23/64/13
f 17/65/17 19/66/17 11/67/17
f 17/65/17 11/67/17 9/68/17
f 32/69/18 16/70/18 24/71/18
f 32/69/18 24/71/18 36/72/18
f 23/73/19 21/74/19 13/75/19
f 23/73/19 13/75/19 15/76/19
f 60/77/20 17/65/20 9/68/20
f 60/77/20 9/68/20 54/78/20
f 56/79/21 58/80/21 65/81/21
f 56/79/21 65/81/21 66/82/21
f 42/83/22 6/84/22 27/85/22
f 42/83/22 27/85/22 40/86/22
f 37/87/23 57/88/23 28/16/23
f 37/87/23 28/16/23 39/15/23
f 57/89/24 55/90/24 27/20/24
f 57/89/24 27/20/24 28/19/24
f 14/91/8 30/92/8 34/93/8
f 14/91/8 34/93/8 22/94/8
f 63/95/11 13/96/11 29/97/11
f 63/95/11 29/97/11 45/98/11
f 48/99/13 52/100/13 31/44/13
f 48/99/13 31/44/13 46/43/13
f 50/101/14 35/47/14 31/50/14
f 50/101/14 31/50/14 52/102/14
f 21/103/11 22/104/11 34/105/11
f 21/103/11 34/105/11 33/106/11
f 50/107/13 49/108/13 36/62/13
f 50/107/13 36/62/13 35/61/13
f 51/102/18 32/69/18 36/72/18
f 51/102/18 36/72/18 49/109/18
f 21/110/20 33/111/20 29/112/20
f 21/110/20 29/112/20 13/113/20
f 12/114/18 51/102/18 49/109/18
f 12/114/18 49/109/18 20/115/18
f 19/116/13 20/117/13 49/108/13
f 19/116/13 49/108/13 50/107/13
f 33/106/11 34/105/11 59/60/11
f 33/106/11 59/60/11 60/59/11
f 4/4/25 2/3/25 55/90/25
f 4/4/25 55/90/25 57/89/25
f 53/118/11 38/13/11 44/2/11
f 53/118/11 44/2/11 10/119/11
f 62/120/13 11/121/13 52/100/13
f 62/120/13 52/100/13 48/99/13
f 19/122/14 50/101/14 52/102/14
f 19/122/14 52/102/14 11/123/14
f 12/124/26 10/119/26 44/2/26
f 12/124/26 44/2/26 43/1/26
f 61/40/11 1/125/11 56/126/11
f 61/40/11 56/126/11 47/37/11
f 66/127/11 45/98/11 47/37/11
f 66/127/11 47/37/11 56/126/11
f 1/128/27 3/129/27 58/80/27
f 1/128/27 58/80/27 56/79/27
f 45/98/11 29/97/11 54/38/11
f 45/98/11 54/38/11 47/37/11
f 33/111/20 60/77/20 54/78/20
f 33/111/20 54/78/20 29/112/20
f 12/130/28 43/131/28 37/87/28
f 12/130/28 37/87/28 51/132/28
f 43/131/29 4/133/29 57/88/29
f 43/131/29 57/88/29 37/87/29
f 40/86/11 27/85/11 55/14/11
f 40/86/11 55/14/11 38/13/11
f 14/134/11 42/83/11 40/86/11
f 14/134/11 40/86/11 30/135/11
f 30/92/8 53/25/8 59/28/8
f 30/92/8 59/28/8 34/93/8
f 25/136/13 46/43/13 64/46/13
f 25/136/13 64/46/13 7/137/13
f 32/138/13 39/15/13 41/18/13
f 32/138/13 41/18/13 16/139/13
f 5/140/11 63/95/11 45/98/11
f 5/140/11 45/98/11 26/141/11
f 30/135/11 40/86/11 38/13/11
f 30/135/11 38/13/11 53/118/11
f 3/142/30 1/143/30 61/22/30
f 3/142/30 61/22/30 62/21/30
f 7/11/31 64/29/31 63/32/31
f 7/11/31 63/32/31 5/12/31
f 51/132/13 37/87/13 39/15/13
f 51/132/13 39/15/13 32/138/13
f 16/144/16 41/5/16 42/8/16
f 16/144/16 42/8/16 14/145/16
f 3/146/13 62/120/13 48/99/13
f 3/146/13 48/99/13 58/147/13
f 58/147/13 48/99/13 46/43/13
f 58/147/13 46/43/13 65/148/13
f 46/149/32 25/150/32 26/151/32
f 46/149/32 26/151/32 45/152/32
f 46/149/33 45/152/33 66/153/33
f 46/149/33 66/153/33 65/154/33
