# Blender v2.64 (sub 0) OBJ File: 'wall.blend'
# www.blender.org
mtllib wall.mtl
o Cube
v 1.000000 -0.100000 -1.000000
v 1.000000 -0.100000 1.000000
v -1.000000 -0.100000 1.000000
v -1.000000 -0.100000 -1.000000
v 1.000000 2.000000 -0.999999
v 0.999999 2.000000 1.000001
v -1.000000 2.000000 1.000000
v -1.000000 2.000000 -1.000000
v 0.700000 2.000000 -0.699999
v 0.699999 2.000000 0.700001
v -0.700000 2.000000 0.700000
v -0.700000 2.000000 -0.700000
v 0.700000 0.000000 -0.699999
v 0.699999 0.000000 0.700001
v -0.700000 0.000000 0.700000
v -0.700000 0.000000 -0.700000
vt 0.150000 0.150000
vt 0.150000 0.850000
vt 0.000000 1.000000
vt -0.000000 0.000000
vt 0.000000 0.026759
vt -0.000000 1.011100
vt -0.937468 1.011100
vt -0.937468 0.026759
vt 0.937468 1.011100
vt 0.937468 0.026759
vt 0.000000 0.073632
vt 0.000000 -0.910709
vt -0.937468 -0.910709
vt -0.937468 0.073632
vt 0.150000 0.500000
vt 0.850000 0.500000
vt 0.850000 1.500000
vt 0.150000 1.500000
vt 0.850000 0.850000
vt 0.850000 0.150000
vt 1.000000 -0.000000
vt 1.000000 1.000000
vt -1.000000 1.000000
vt -0.850000 0.850000
vt -0.150000 0.850000
vt 0.150000 -0.500000
vt 0.850000 -0.500000
vn -0.000000 1.000000 0.000000
vn 1.000000 0.000000 0.000000
vn -0.000000 -0.000000 1.000000
vn -1.000000 -0.000000 -0.000000
vn 0.000000 0.000000 -1.000000
vn -1.000000 0.000000 -0.000001
vn 0.000001 0.000000 -1.000000
usemtl Material
s off
f 11/1/1 12/2/1 8/3/1
f 11/1/1 8/3/1 7/4/1
f 1/5/2 5/6/2 6/7/2
f 1/5/2 6/7/2 2/8/2
f 2/5/3 6/6/3 7/7/3
f 2/5/3 7/7/3 3/8/3
f 3/5/4 7/6/4 8/9/4
f 3/5/4 8/9/4 4/10/4
f 5/11/5 1/12/5 4/13/5
f 5/11/5 4/13/5 8/14/5
f 15/15/2 16/16/2 12/17/2
f 15/15/2 12/17/2 11/18/2
f 9/19/1 10/20/1 6/21/1
f 9/19/1 6/21/1 5/22/1
f 5/3/1 8/23/1 12/24/1
f 5/3/1 12/24/1 9/25/1
f 10/20/1 11/1/1 7/4/1
f 10/20/1 7/4/1 6/21/1
f 13/16/6 14/15/6 10/18/6
f 13/16/6 10/18/6 9/17/6
f 9/16/3 12/15/3 16/26/3
f 9/16/3 16/26/3 13/27/3
f 14/16/7 15/15/7 11/18/7
f 14/16/7 11/18/7 10/17/7
